<?xml version="1.0" standalone="no"?>
<!DOCTYPE svg PUBLIC "-//W3C//DTD SVG 20010904//EN"
 "http://www.w3.org/TR/2001/REC-SVG-20010904/DTD/svg10.dtd">
<svg version="1.0" xmlns="http://www.w3.org/2000/svg"
 width="704.000000pt" height="143.000000pt" viewBox="0 0 704.000000 143.000000"
 preserveAspectRatio="xMidYMid meet">

<g transform="translate(0.000000,143.000000) scale(0.100000,-0.100000)"
fill="#000000" stroke="none">
<path d="M23 1405 c-3 -9 1 -23 9 -33 8 -9 22 -34 32 -54 15 -34 16 -89 14
-610 -3 -617 -3 -620 -56 -643 -15 -7 -22 -18 -22 -38 l0 -29 83 6 c711 52
692 50 820 109 139 65 265 194 307 315 13 37 26 72 30 77 14 18 30 151 30 239
0 127 -25 232 -88 366 -38 81 -160 198 -237 229 -33 12 -69 27 -80 31 -110 44
-174 50 -523 50 -272 0 -313 -2 -319 -15z m634 -331 c49 -16 141 -95 168 -144
50 -91 56 -113 57 -193 1 -84 -20 -175 -48 -208 -8 -8 -14 -18 -14 -22 0 -17
-100 -106 -140 -124 -56 -25 -147 -46 -180 -42 -25 4 -25 4 -31 144 -4 77 -7
240 -8 362 -1 219 -1 222 22 238 26 19 97 15 174 -11z"/>
<path d="M1344 1406 c-3 -7 4 -30 15 -50 21 -36 21 -50 21 -609 0 -554 -1
-573 -20 -605 -40 -65 -38 -66 133 -59 83 4 289 12 456 19 l303 12 9 25 c5 13
8 69 7 125 l-3 101 -140 -5 c-77 -3 -192 -5 -255 -5 l-115 0 0 115 0 115 145
5 c201 7 200 7 200 144 0 84 -3 106 -17 117 -11 10 -61 15 -172 19 l-156 5 0
140 0 140 249 3 c164 1 254 6 263 13 9 8 13 41 13 114 0 86 -3 104 -18 118
-17 15 -64 17 -466 17 -369 0 -448 -2 -452 -14z"/>
<path d="M2340 1395 c0 -15 8 -40 17 -58 16 -29 18 -80 18 -577 l0 -545 -22
-29 c-13 -16 -23 -37 -23 -48 0 -18 12 -18 398 -12 218 4 405 11 415 16 14 7
17 24 17 111 0 56 -5 109 -10 117 -8 13 -42 15 -207 15 l-198 0 0 518 0 517
-202 0 -203 0 0 -25z"/>
<path d="M3240 1371 c0 -27 4 -52 9 -55 5 -3 12 -18 15 -32 4 -15 19 -42 33
-60 67 -89 170 -99 239 -22 44 48 85 137 82 176 l-3 37 -187 3 -188 2 0 -49z"/>
<path d="M3700 1392 c0 -15 5 -33 11 -39 7 -7 11 -186 12 -559 2 -506 1 -551
-15 -579 -10 -16 -18 -40 -18 -52 l0 -23 199 0 199 0 6 32 c3 18 9 104 12 191
4 86 10 157 14 157 5 0 19 -17 32 -37 12 -20 31 -49 40 -63 10 -14 22 -34 28
-45 6 -11 19 -33 30 -50 10 -16 27 -46 37 -65 9 -19 30 -54 46 -78 28 -42 29
-42 89 -42 70 0 73 3 119 95 47 95 75 144 93 163 9 10 16 22 16 26 0 4 13 26
28 49 16 23 31 50 35 59 4 10 11 18 17 18 14 0 13 -312 -2 -362 -7 -23 -8 -42
-2 -47 5 -5 104 -10 219 -12 208 -4 210 -4 213 17 2 12 -6 37 -17 55 -20 33
-21 47 -21 569 0 455 2 539 15 564 8 15 15 41 15 57 l0 29 -215 0 -215 0 0
-30 c0 -28 -20 -70 -112 -238 -20 -37 -51 -96 -68 -132 -17 -36 -36 -73 -41
-83 -6 -10 -19 -36 -30 -57 -24 -45 -44 -64 -59 -55 -5 3 -19 26 -30 50 -11
24 -24 46 -29 49 -5 4 -26 41 -47 84 -21 42 -43 84 -50 92 -6 8 -29 49 -51 90
-22 41 -49 91 -61 110 -14 22 -22 51 -22 78 l0 42 -210 0 -210 0 0 -28z"/>
<path d="M5264 1407 c-2 -7 2 -32 11 -56 22 -64 23 -1111 0 -1155 -18 -35 -19
-75 -2 -81 6 -2 104 -6 216 -10 l203 -7 -7 44 c-10 56 -10 1180 0 1236 l7 42
-211 0 c-164 0 -213 -3 -217 -13z"/>
<path d="M5730 1401 c0 -10 20 -41 45 -69 25 -27 45 -54 45 -59 0 -5 11 -20
25 -33 14 -13 25 -29 25 -36 0 -6 7 -18 16 -25 9 -7 20 -22 25 -34 5 -11 23
-38 40 -60 16 -22 34 -49 39 -60 6 -11 18 -32 28 -46 9 -14 29 -43 43 -65 15
-22 34 -45 43 -53 9 -7 16 -18 16 -24 0 -6 8 -20 19 -31 28 -31 34 -61 16 -76
-8 -7 -15 -18 -15 -25 0 -7 -7 -19 -16 -26 -9 -7 -20 -22 -25 -34 -18 -37 -36
-66 -58 -89 -11 -12 -21 -27 -21 -32 0 -6 -13 -23 -30 -39 -16 -16 -30 -33
-30 -39 0 -5 -7 -18 -17 -28 -9 -10 -21 -27 -27 -37 -30 -52 -106 -158 -125
-175 -37 -33 -62 -98 -43 -110 4 -2 96 -10 204 -17 215 -14 213 -14 243 42 8
16 22 42 30 58 9 16 22 34 30 41 8 7 15 18 15 25 0 6 9 20 20 30 11 10 20 23
20 29 1 6 14 27 30 46 l30 34 18 -24 c20 -29 38 -59 48 -80 4 -8 23 -36 41
-62 18 -26 33 -52 33 -56 0 -5 9 -17 20 -27 11 -10 20 -23 20 -29 0 -6 13 -25
29 -42 32 -34 39 -35 329 -50 l132 -7 0 25 c0 14 -14 37 -35 58 -19 19 -35 39
-35 45 0 7 -9 20 -20 30 -11 10 -20 22 -20 27 0 5 -31 56 -70 114 -38 59 -70
110 -70 114 0 4 -9 15 -20 25 -11 10 -20 22 -20 26 0 5 -18 32 -40 61 -22 29
-40 58 -40 64 0 6 -7 17 -15 24 -16 13 -65 115 -65 134 1 19 53 111 108 190
28 41 52 79 52 84 0 5 9 17 20 27 11 10 20 23 20 30 0 7 9 20 20 30 11 10 20
22 20 27 0 13 98 158 137 201 62 70 58 72 -192 72 l-219 0 -7 -32 c-3 -18 -18
-47 -31 -65 -14 -18 -27 -38 -29 -43 -8 -21 -114 -175 -120 -175 -6 0 -79 106
-79 115 0 3 -20 35 -44 71 -37 56 -43 72 -39 100 l6 34 -242 0 c-230 0 -241
-1 -241 -19z"/>
<path d="M3246 988 c5 -29 9 -211 9 -403 0 -348 0 -351 -22 -379 -13 -16 -23
-37 -23 -47 0 -18 12 -19 210 -19 l210 0 0 38 c0 21 -5 43 -11 49 -7 7 -9 135
-7 412 l3 401 -189 0 -189 0 9 -52z"/>
</g>
</svg>
